<svg xmlns="http://www.w3.org/2000/svg" viewBox="0 0 493 256" width="493" height="256" role="img" aria-label="regai">
  <defs>
    <linearGradient id="tile" x1="0" y1="0" x2="1" y2="1">
      <stop offset="0" stop-color="#1d3563"/><stop offset="1" stop-color="#14254a"/>
    </linearGradient>
    <linearGradient id="gold" x1="0" y1="0" x2="0" y2="1">
      <stop offset="0" stop-color="#e8d4a8"/><stop offset="1" stop-color="#b8893b"/>
    </linearGradient>
    <linearGradient id="rule" x1="0" y1="0" x2="1" y2="0">
      <stop offset="0" stop-color="#b8893b" stop-opacity="0"/><stop offset=".5" stop-color="#b8893b"/><stop offset="1" stop-color="#b8893b" stop-opacity="0"/>
    </linearGradient>
  </defs>
  <rect x="4" y="44.0" width="168" height="168" rx="37.0" fill="url(#tile)"/>
  <rect x="5" y="45.0" width="166" height="166" rx="36.0" fill="none" stroke="#e8d4a8" stroke-opacity=".18" stroke-width="2"/>
  <path d="M51.9 74.2H37.6V181.8H51.9" fill="none" stroke="url(#gold)" stroke-width="4.4" stroke-linecap="square"/>
  <path d="M95.9 123.1Q95.9 110.4 99.6 101.9Q103.3 93.3 109.1 89Q114.8 84.6 121 84.6Q128.2 84.6 132.1 89.1Q135.9 93.6 135.9 101.9Q135.9 109.1 132.6 112.6Q129.2 116.1 124.2 116.1Q119.5 116.1 117.2 113.5Q114.9 110.9 114.6 105.7L114.5 102.7Q114.5 99.7 113.3 98.2Q112.2 96.6 109.3 96.6Q106.2 96.6 103.4 99.6Q100.7 102.6 98.9 108.6Q97.1 114.6 97.1 123.7ZM97.1 86.6V118.7V165.4Q97.1 166.5 97.7 167.4Q98.4 168.2 99.5 168.5L109.1 170Q109.6 170.1 109.8 170.3Q110 170.4 110 170.7Q110 171 109.7 171.2Q109.5 171.4 109 171.4H66.2Q65.8 171.4 65.5 171.1Q65.3 170.9 65.3 170.7Q65.3 170.4 65.6 170.2Q65.9 170 66.5 169.9L71.7 169.1Q73 168.8 73.5 168.1Q74 167.4 74 166.4V95.2Q74 94.6 73.8 94.1Q73.5 93.7 72.8 93.7H66.2Q66 93.7 65.7 93.5Q65.5 93.3 65.5 93.1Q65.5 92.8 65.7 92.6Q66 92.4 66.4 92.3L94.2 85.7Q94.9 85.5 95.3 85.4Q95.7 85.4 96.1 85.4Q96.6 85.4 96.9 85.8Q97.1 86.2 97.1 86.6Z" fill="url(#gold)"/>
  <path d="M231.2 128.1Q231.2 118 234 111.2Q236.8 104.3 241.2 100.9Q245.6 97.5 250.3 97.5Q255.6 97.5 258.5 100.7Q261.4 103.9 261.4 109.5Q261.4 114 259.3 116.2Q257.3 118.4 254.2 118.4Q251.3 118.4 249.8 116.7Q248.3 115.1 248.2 111.8L248.1 109.6Q248.1 107 247 105.7Q246 104.5 243.5 104.5Q240.7 104.5 238 107.1Q235.4 109.8 233.7 115.1Q231.9 120.5 231.9 128.4ZM231.9 98.9V124.6V160Q231.9 160.8 232.4 161.4Q232.9 162 233.8 162.1L241.2 163.2Q241.6 163.3 241.8 163.4Q241.9 163.5 241.9 163.7Q241.9 163.9 241.7 164Q241.6 164.2 241.2 164.2H211.5Q211.2 164.2 211 164Q210.8 163.8 210.8 163.7Q210.8 163.5 211 163.3Q211.3 163.2 211.7 163.1L216.4 162.5Q217.3 162.3 217.8 161.8Q218.2 161.3 218.2 160.6V104.8Q218.2 104.4 218 104.1Q217.8 103.8 217.3 103.8H211.4Q211.2 103.8 211.1 103.7Q210.9 103.5 210.9 103.4Q210.9 103.2 211.1 103Q211.2 102.9 211.6 102.8L230 98.3Q230.5 98.1 230.7 98.1Q231 98.1 231.2 98.1Q231.6 98.1 231.8 98.3Q231.9 98.6 231.9 98.9ZM320.5 124.7Q320.5 125.3 320.1 125.6Q319.8 126 319 126H272.8V124.9H305.5Q306.7 124.9 306.7 123.6Q306.7 111 302.8 104.7Q298.8 98.4 292.8 98.4Q287.6 98.4 283.9 101.6Q280.3 104.9 278.3 111.1Q276.3 117.4 276.3 126.4Q276.3 141.8 282.9 149.8Q289.5 157.8 300 157.8Q307.5 157.8 312.9 153.5Q318.3 149.1 319.2 141.6Q319.3 141.3 319.4 141.2Q319.5 141.1 319.6 141.1Q319.8 141.1 319.9 141.2Q320.1 141.4 320 141.8Q319.4 148.6 315.8 154Q312.1 159.4 306.3 162.5Q300.4 165.7 293.1 165.7Q284.3 165.7 277.6 161.6Q271 157.6 267.3 150.3Q263.5 142.9 263.5 133Q263.5 122.6 267.4 114.6Q271.2 106.6 278.2 102Q285.1 97.4 294.5 97.4Q302.4 97.4 308.2 100.9Q314.1 104.4 317.3 110.6Q320.5 116.8 320.5 124.7ZM367.1 163.3Q357.8 160.6 353.3 158.8Q348.8 157 347.3 155.5Q345.9 154.1 345.9 152.2Q345.9 150.5 347.3 149.1Q348.6 147.7 350.6 146.9L350.7 146.3Q344.8 147.6 341.4 149.4Q338 151.1 336.5 153.5Q335 155.8 335 158.6Q335 161.9 337.1 164.2Q339.3 166.6 344.6 168.7Q349.9 170.8 359.2 173.2Q367 175.2 371.2 177.2Q375.4 179.1 377 181.5Q378.6 183.8 378.6 186.7Q378.6 190.9 376.3 193.9Q374 196.8 369.4 198.3Q364.8 199.8 358 199.8Q345 199.8 338.8 194.5Q332.6 189.3 332.6 180.7Q332.6 176.3 336.4 173Q340.1 169.7 347.4 168.5L347.2 167.6Q334.2 169.5 328.6 173.8Q323.1 178 323.1 184.2Q323.1 189 326.7 192.9Q330.3 196.7 337.9 198.9Q345.4 201.1 357.2 201.1Q372.6 201.1 381.1 195.4Q389.5 189.8 389.5 180.9Q389.5 176.5 387.6 173.4Q385.7 170.2 380.8 167.8Q376 165.4 367.1 163.3ZM367.7 101.4 368.7 101.4Q370.4 98.6 372.1 96.9Q373.9 95.2 375.9 95.2Q377.4 95.2 378.6 96.4Q379.7 97.6 380.9 99.3Q382 100.9 383.4 102.1Q384.7 103.4 386.7 103.4Q389.6 103.4 391 101.7Q392.4 100 392.4 97.1Q392.4 93.4 389.9 90.9Q387.3 88.5 383.1 88.5Q378.2 88.5 374.7 91.8Q371.2 95.1 368.3 100.3ZM384.4 122.1Q384.4 115.3 380.9 109.7Q377.4 104.1 371.1 100.7Q364.7 97.4 356.2 97.4Q347 97.4 340.4 100.8Q333.7 104.2 330.1 110.1Q326.5 116 326.5 123.5Q326.5 130.2 330.2 135.7Q333.8 141.2 340.3 144.4Q346.8 147.7 355.3 147.7Q363.5 147.7 370.1 144.4Q376.7 141.1 380.5 135.3Q384.4 129.5 384.4 122.1ZM352.9 98.8Q360.2 98.6 364.9 105.4Q369.7 112.2 370.4 123.5Q371.1 133.6 367.5 139.8Q363.9 145.9 357.6 146.1Q353 146.2 349.2 143.1Q345.4 140 343 134.4Q340.6 128.8 340.2 121.5Q339.7 114.8 341.3 109.8Q342.8 104.7 345.8 101.8Q348.9 98.9 352.9 98.8ZM432.3 157.2V156.7L431.7 157.2V111.8Q431.7 105.2 429.1 101.7Q426.5 98.3 421.3 98.3Q415.6 98.3 413 101Q410.3 103.7 410.3 106.7V112Q410.3 115.1 408.2 117.2Q406.1 119.2 402.8 119.2Q400.4 119.2 398.9 117.7Q397.3 116.1 397.3 113.1Q397.3 109.2 400.2 105.6Q403.1 102 408.9 99.7Q414.6 97.4 422.9 97.4Q434.3 97.4 439.9 102.3Q445.5 107.3 445.5 116.3V156Q445.5 159 446.5 160.3Q447.5 161.6 448.9 161.6Q450.3 161.6 451.4 160.8Q452.4 160 452.7 158.3Q452.7 158 452.8 157.9Q452.9 157.8 453 157.8Q453.2 157.8 453.3 157.9Q453.3 158 453.3 158.3Q453.3 159.5 452.3 161.2Q451.2 162.9 448.8 164.1Q446.4 165.4 442.5 165.4Q437.3 165.4 434.8 163.2Q432.3 160.9 432.3 157.2ZM393.7 149.8Q393.7 142 400.1 137.1Q406.5 132.2 419.8 132.2Q425 132.2 428.4 133.2Q431.8 134.2 434.7 135.6L434.2 136.1Q431.3 134.8 428.2 134Q425.1 133.2 421.2 133.2Q414.6 133.2 411.1 137.1Q407.6 141 407.6 147.7Q407.6 154.2 410.9 157.8Q414.2 161.5 419.6 161.5Q423.3 161.5 426.9 159.8Q430.5 158.2 433 155.1L433.7 155.5Q430.3 160.4 424.6 162.9Q418.9 165.5 412.3 165.5Q404 165.5 398.8 161.1Q393.7 156.7 393.7 149.8ZM477.3 98.5V160.3Q477.3 161.2 477.8 161.7Q478.2 162.3 479.1 162.5L483.8 163.2Q484.3 163.2 484.4 163.4Q484.6 163.5 484.6 163.7Q484.6 163.9 484.4 164Q484.3 164.2 484 164.2H456.7Q456.5 164.2 456.4 164Q456.2 163.9 456.2 163.7Q456.2 163.6 456.4 163.5Q456.5 163.3 456.9 163.3L461.8 162.5Q462.8 162.3 463.2 161.7Q463.6 161.2 463.6 160.4V105Q463.6 104.6 463.4 104.4Q463.2 104.1 462.7 104.1H457Q456.7 104.1 456.6 104Q456.4 103.9 456.4 103.7Q456.4 103.4 456.6 103.3Q456.7 103.2 457 103.1L475.4 98Q476 97.8 476.2 97.8Q476.4 97.8 476.6 97.8Q477 97.8 477.2 98Q477.3 98.2 477.3 98.5ZM470.1 86Q466.3 86 463.9 83.4Q461.6 80.8 461.6 77Q461.6 73.3 464 70.7Q466.4 68.1 470.1 68.1Q473.9 68.1 476.3 70.7Q478.8 73.3 478.8 77Q478.8 80.8 476.3 83.4Q473.9 86 470.1 86Z" fill="#14254a"/>
</svg>
